<?xml version="1.0" encoding="UTF-8"?>
<svg xmlns="http://www.w3.org/2000/svg" viewBox="0 0 512 512" width="512" height="512">
  <g fill="#2BE383" stroke="none">
    <path d="M 256 36 A 220 220 0 0 1 476 256" fill="none" stroke="#2BE383" stroke-width="24"/>
    <path d="M 256 36 A 220 220 0 0 0 476 256" fill="none" stroke="#2BE383" stroke-width="24"/>
    <path d="M 256 476 A 220 220 0 0 1 36 256" fill="none" stroke="#2BE383" stroke-width="24"/>
    <path d="M 256 476 A 220 220 0 0 0 36 256" fill="none" stroke="#2BE383" stroke-width="24"/>
    <path d="M 148 360 L 148 152 L 208 152 L 256 248 L 304 152 L 364 152 L 364 360 L 312 360 L 312 220 L 256 320 L 200 220 L 200 360 Z"/>
  </g>
</svg>
